<?xml version="1.0" encoding="utf-8"?>
<!-- Generator: Adobe Illustrator 28.3.0, SVG Export Plug-In . SVG Version: 6.00 Build 0)  -->
<svg version="1.1" id="Layer_1" xmlns="http://www.w3.org/2000/svg" xmlns:xlink="http://www.w3.org/1999/xlink" x="0px" y="0px"
	 viewBox="0 0 512 512" style="enable-background:new 0 0 512 512;" xml:space="preserve">
<style type="text/css">
	.st0{fill:#FECD0A;}
</style>
<circle class="st0" cx="256" cy="256" r="238.3"/>
<path d="M464,256c0-114.9-93.1-208-208-208S48,141.1,48,256s93.1,208,208,208S464,370.9,464,256z M0,256C0,114.6,114.6,0,256,0
	s256,114.6,256,256S397.4,512,256,512S0,397.4,0,256z M256,288c35.3,0,64,28.7,64,64s-28.7,64-64,64s-64-28.7-64-64
	S220.7,288,256,288z M103,135c9.4-9.4,24.6-9.4,33.9,0l23,23l23-23c9.4-9.4,24.6-9.4,33.9,0s9.4,24.6,0,33.9l-23,23l23,23
	c9.4,9.4,9.4,24.6,0,33.9s-24.6,9.4-33.9,0l-23-23l-23,23c-9.4,9.4-24.6,9.4-33.9,0s-9.4-24.6,0-33.9l23-23l-23-23
	C93.6,159.5,93.6,144.3,103,135z M295,135c9.4-9.4,24.6-9.4,33.9,0l23,23l23-23c9.4-9.4,24.6-9.4,33.9,0s9.4,24.6,0,33.9l-23,23
	l23,23c9.4,9.4,9.4,24.6,0,33.9s-24.6,9.4-33.9,0l-23-23l-23,23c-9.4,9.4-24.6,9.4-33.9,0s-9.4-24.6,0-33.9l23-23l-23-23
	C285.6,159.5,285.6,144.3,295,135z"/>
</svg>
